<?xml version="1.0" encoding="utf-8"?>
<!-- Generator: Adobe Illustrator 21.1.0, SVG Export Plug-In . SVG Version: 6.00 Build 0)  -->
<svg version="1.1" id="Layer_1" xmlns:inkscape="http://www.inkscape.org/namespaces/inkscape"
	 xmlns="http://www.w3.org/2000/svg" xmlns:xlink="http://www.w3.org/1999/xlink" x="0px" y="0px" viewBox="0 0 10 39.4"
	 style="enable-background:new 0 0 10 39.4;" xml:space="preserve">
<path d="M6.7,21.8c-0.1,0-0.2-0.1-0.2-0.1l-3.2-1.9c-0.2-0.2-0.3-0.4-0.2-0.6c0.1-0.2,0.4-0.3,0.6-0.2l3.2,1.9
	c0.2,0.2,0.2,0.4,0.2,0.6C7,21.7,6.8,21.8,6.7,21.8z M6.7,19.2c-0.1,0-0.2-0.1-0.2-0.1l-3.2-1.9c-0.2-0.2-0.3-0.4-0.2-0.6
	c0.1-0.2,0.4-0.3,0.6-0.2l3.2,1.9c0.2,0.2,0.2,0.4,0.2,0.6C7,19.2,6.8,19.2,6.7,19.2z M6.7,16.7c-0.1,0-0.2-0.1-0.2-0.1l-3.2-1.9
	c-0.2-0.2-0.3-0.4-0.2-0.6c0.1-0.2,0.4-0.3,0.6-0.2l3.2,1.9c0.2,0.2,0.2,0.4,0.2,0.6C7,16.6,6.8,16.7,6.7,16.7z M4.9,39.4
	c-0.2,0-0.4-0.2-0.4-0.5V0.5C4.5,0.2,4.7,0,4.9,0c0.4,0,0.5,0.2,0.5,0.5v38.5C5.5,39.2,5.3,39.4,4.9,39.4z M9.6,0.8H0.4
	C0.2,0.8,0,0.7,0,0.5C0,0.2,0.2,0,0.4,0h9.2C9.8,0,10,0.2,10,0.5C10,0.7,9.8,0.8,9.6,0.8z"/>
</svg>
