<?xml version="1.0" encoding="utf-8"?>
<!-- Generator: Adobe Illustrator 21.1.0, SVG Export Plug-In . SVG Version: 6.00 Build 0)  -->
<svg version="1.1" id="Layer_1" xmlns:inkscape="http://www.inkscape.org/namespaces/inkscape"
	 xmlns="http://www.w3.org/2000/svg" xmlns:xlink="http://www.w3.org/1999/xlink" x="0px" y="0px" viewBox="0 0 15 19.8"
	 style="enable-background:new 0 0 15 19.8;" xml:space="preserve">
<path d="M14.6,11.1c0,0-0.1,0-0.2,0L12,9.7c-0.2-0.1-0.2-0.3-0.2-0.5c0.1-0.2,0.3-0.2,0.5-0.2l2.6,1.4c0.2,0.1,0.2,0.3,0.1,0.5
	C14.9,11.1,14.8,11.1,14.6,11.1z M11.6,11.1c0,0-0.1,0-0.2,0L8.9,9.7C8.7,9.6,8.7,9.4,8.7,9.2C8.9,9.1,9.1,9,9.3,9.1l2.5,1.4
	c0.2,0.1,0.2,0.3,0.2,0.5C11.8,11.1,11.7,11.1,11.6,11.1z M8.8,11.1c-0.1,0-0.1,0-0.2,0L6.1,9.7C5.9,9.6,5.8,9.4,6,9.2
	C6,9.1,6.3,9,6.4,9.1l2.5,1.4c0.2,0.1,0.2,0.3,0.2,0.5C9,11.1,8.9,11.1,8.8,11.1z M5.9,11.1c-0.1,0-0.1,0-0.2,0L3.2,9.7
	C3.1,9.6,3,9.4,3.1,9.2C3.2,9.1,3.4,9,3.6,9.1l2.5,1.4c0.2,0.1,0.2,0.3,0.2,0.5C6.2,11.1,6,11.1,5.9,11.1z M2.9,11.1
	c0,0-0.1,0-0.2,0L0.2,9.7C0,9.6,0,9.4,0,9.2C0.2,9.1,0.3,9,0.5,9.1l2.5,1.4c0.2,0.1,0.2,0.3,0.1,0.5C3.1,11.1,3,11.1,2.9,11.1z
	 M9.4,19.8c-0.1,0-0.2,0-0.3-0.2c-0.1-0.2-0.1-0.4,0.1-0.5c3.3-2.4,4.2-7.2,3.6-10.6c-0.4-3-1.9-5.3-4-6c-0.2,0-0.3-0.3-0.2-0.4
	c0.1-0.2,0.3-0.3,0.5-0.2c2.3,0.8,4,3.3,4.5,6.6c0.5,3.8-0.5,8.7-3.9,11.3C9.6,19.8,9.5,19.8,9.4,19.8z M8.4,19.5
	c-0.1,0-0.2,0-0.3-0.1c-0.1-0.2-0.1-0.4,0-0.5c1.3-1.2,2.1-5.7,1.8-10.1C9.8,5.7,9,3.4,8,2.7C7.9,2.6,7.8,2.4,7.9,2.2
	C8.1,2,8.2,2,8.4,2.1c1.6,1.1,2.1,4.6,2.2,6.6c0.3,4.1-0.3,9.2-2,10.7C8.6,19.5,8.5,19.5,8.4,19.5z M5.7,19.8c-0.1,0-0.2,0-0.2-0.1
	C2,17.2,1,12.2,1.5,8.4C2,5.1,3.7,2.7,6,1.9c0.2-0.1,0.4,0,0.5,0.2c0.1,0.2,0,0.4-0.2,0.4c-2.1,0.7-3.6,3-4,6
	C1.7,12,2.6,16.8,5.9,19.2c0.2,0.1,0.2,0.3,0,0.5C5.9,19.8,5.8,19.8,5.7,19.8z M6.7,19.5c-0.1,0-0.2,0-0.2-0.1
	c-1.7-1.5-2.3-6.6-2-10.7c0.2-2,0.6-5.5,2.3-6.6C6.9,2,7.1,2,7.2,2.2c0.1,0.2,0.1,0.4-0.1,0.5c-1,0.7-1.7,3-1.9,6.1
	c-0.3,4.4,0.5,8.9,1.7,10.1C7,19,7,19.2,6.9,19.4C6.9,19.5,6.8,19.5,6.7,19.5z M7.7,2.7c-2,0-3.6-1-3.6-2.4C4.1,0.2,4.3,0,4.5,0l0,0
	c0.2,0,0.3,0.2,0.3,0.3C4.8,1.2,6.1,2,7.7,2s2.9-0.7,2.9-1.6c0-0.2,0.2-0.3,0.3-0.3c0.2,0,0.3,0.2,0.3,0.3C11.2,1.7,9.7,2.7,7.7,2.7
	z M7.7,19.5c-0.2,0-0.4-0.2-0.4-0.3V2.5c0-0.2,0.2-0.3,0.4-0.3C7.9,2.2,8,2.3,8,2.5v16.6C8,19.3,7.9,19.5,7.7,19.5z"/>
</svg>
