<?xml version="1.0" encoding="utf-8"?>
<!-- Generator: Adobe Illustrator 21.1.0, SVG Export Plug-In . SVG Version: 6.00 Build 0)  -->
<svg version="1.1" id="Layer_1" xmlns:inkscape="http://www.inkscape.org/namespaces/inkscape"
	 xmlns="http://www.w3.org/2000/svg" xmlns:xlink="http://www.w3.org/1999/xlink" x="0px" y="0px" viewBox="0 0 50 22.9"
	 style="enable-background:new 0 0 50 22.9;" xml:space="preserve">
<path d="M10.9,13.5c-0.2,0-0.4-0.1-0.4-0.4s0.1-0.5,0.4-0.5l3.5-0.8c0.2-0.1,0.5,0.1,0.5,0.3c0,0.3-0.1,0.5-0.4,0.5L10.9,13.5
	C11,13.5,10.9,13.5,10.9,13.5z M22.3,22.7c-0.1,0-0.2,0-0.3-0.1L4.1,3.9c-0.2-0.2-0.2-0.4,0-0.6s0.5-0.2,0.7,0l17.9,18.6
	c0.2,0.2,0.2,0.4,0,0.6C22.5,22.6,22.4,22.7,22.3,22.7z M0.5,5C0.3,5,0.1,4.8,0,4.7c0-0.3,0.1-0.5,0.3-0.6l7.5-2.2
	c0.2-0.1,0.5,0,0.6,0.3c0,0.3-0.1,0.5-0.3,0.6L0.6,5C0.5,5,0.5,5,0.5,5z M20.4,11.3C20.4,11.3,20.4,11.3,20.4,11.3l-3.6-0.4
	c-0.3,0-0.4-0.2-0.4-0.5c0-0.2,0.3-0.4,0.5-0.4l3.6,0.4c0.2,0,0.4,0.2,0.4,0.5C20.8,11.1,20.6,11.3,20.4,11.3z M23.6,22.3
	c-0.2,0-0.3-0.1-0.4-0.3l-9-20.5c-0.1-0.2,0-0.5,0.2-0.6c0.2-0.1,0.5,0,0.6,0.2l9,20.5c0.1,0.2,0,0.5-0.2,0.6
	C23.8,22.3,23.7,22.3,23.6,22.3z M10.6,2.2c-0.2,0-0.4-0.1-0.4-0.4c0-0.3,0.1-0.5,0.4-0.5l7.8-1.1c0.3,0,0.5,0.1,0.5,0.4
	c0,0.3-0.1,0.5-0.4,0.5L10.6,2.2L10.6,2.2z M37.9,14.7c-0.2,0-0.4-0.1-0.4-0.3l-1-3.5c0-0.2,0.1-0.5,0.3-0.5c0.2-0.1,0.5,0,0.5,0.3
	l1,3.5C38.4,14.3,38.3,14.6,37.9,14.7C38,14.7,38,14.7,37.9,14.7z M27.9,22.9c-0.1,0-0.2,0-0.3-0.1c-0.2-0.2-0.2-0.4,0-0.6l18-18.9
	c0.2-0.2,0.5-0.2,0.7,0c0.2,0.2,0.2,0.4,0,0.6l-18,18.9C28.1,22.9,28,22.9,27.9,22.9z M49.6,4.9c0,0-0.1,0-0.1,0l-7.5-2.2
	c-0.2,0-0.4-0.3-0.3-0.5c0.1-0.3,0.3-0.4,0.6-0.3L49.7,4c0.2,0,0.4,0.3,0.3,0.5C49.9,4.8,49.7,4.9,49.6,4.9z M32.4,13
	c-0.1,0-0.3-0.1-0.4-0.2l-2.1-2.9c-0.1-0.2-0.1-0.5,0.1-0.6c0.2-0.2,0.5-0.1,0.7,0.1l2.1,2.9c0.1,0.2,0.1,0.4-0.1,0.6
	C32.6,12.9,32.5,13,32.4,13z M26.7,22.3c-0.1,0-0.1,0-0.2,0c-0.3-0.1-0.4-0.4-0.3-0.6l9-20.5C35.3,1,35.6,0.9,35.8,1
	C36,1.1,36.1,1.3,36,1.6l-9,20.5C27,22.2,26.8,22.3,26.7,22.3z M39.4,2.2C39.4,2.2,39.4,2.2,39.4,2.2l-7.8-1.1
	c-0.2,0-0.4-0.3-0.4-0.5c0-0.2,0.3-0.4,0.5-0.4l7.8,1.1c0.3,0,0.4,0.3,0.4,0.5C39.8,2,39.6,2.2,39.4,2.2z M26.7,11.7
	c-0.1,0-0.1,0-0.2-0.1l-3.1-1.8c-0.2-0.1-0.3-0.4-0.2-0.6C23.3,9,23.5,8.9,23.8,9l3.1,1.8c0.2,0.1,0.3,0.4,0.2,0.6
	C27,11.6,26.8,11.7,26.7,11.7z M25.1,22.2c-0.3,0-0.5-0.2-0.5-0.4V0.7c0-0.3,0.2-0.5,0.5-0.5c0.3,0,0.5,0.2,0.5,0.5v21.1
	C25.6,22,25.4,22.2,25.1,22.2z M29,0.9h-7.9c-0.3,0-0.4-0.2-0.4-0.4c0-0.3,0.2-0.4,0.4-0.4H29c0.2,0,0.4,0.2,0.4,0.4
	C29.4,0.7,29.2,0.9,29,0.9z"/>
</svg>
