<?xml version="1.0" encoding="utf-8"?>
<!-- Generator: Adobe Illustrator 21.1.0, SVG Export Plug-In . SVG Version: 6.00 Build 0)  -->
<svg version="1.1" id="Layer_1" xmlns:inkscape="http://www.inkscape.org/namespaces/inkscape"
	 xmlns="http://www.w3.org/2000/svg" xmlns:xlink="http://www.w3.org/1999/xlink" x="0px" y="0px" viewBox="0 0 10 32"
	 style="enable-background:new 0 0 10 32;" xml:space="preserve">
<path d="M6.7,16.5c-0.1,0-0.2,0-0.2-0.1l-3.2-1.9c-0.2-0.2-0.3-0.4-0.2-0.6s0.4-0.3,0.6-0.2l3.2,1.9c0.2,0.1,0.3,0.4,0.2,0.6
	C6.9,16.4,6.8,16.5,6.7,16.5z M6.7,14.1c-0.1,0-0.2-0.1-0.2-0.1l-3.2-1.9c-0.2-0.1-0.3-0.4-0.2-0.6s0.4-0.2,0.6-0.1l3.2,1.9
	c0.2,0.1,0.3,0.4,0.2,0.6C6.9,13.9,6.8,14.1,6.7,14.1z M4.9,32c-0.2,0-0.4-0.2-0.4-0.4V0.4C4.5,0.2,4.8,0,4.9,0
	c0.3,0,0.5,0.2,0.5,0.4v31.1C5.4,31.8,5.2,32,4.9,32z M9.6,0.9H0.4C0.2,0.9,0,0.7,0,0.4S0.2,0,0.4,0h9.1C9.8,0,10,0.2,10,0.4
	S9.8,0.9,9.6,0.9z"/>
</svg>
